<svg class="svg-icon" style="width: 1em; height: 1em;vertical-align: middle;fill: currentColor;overflow: hidden;" viewBox="0 0 1024 1024" version="1.1" xmlns="http://www.w3.org/2000/svg"><path d="M859.804672 948.054016l-529.494016 0c-48.738304 0-88.249344-39.5008-88.249344-88.249344l0 0 0-77.867008-77.867008 0c-48.738304 0-88.249344-39.5008-88.249344-88.249344l0 0 0-529.494016c0-48.738304 39.51104-88.249344 88.249344-88.249344l0 0 529.494016 0c48.74752 0 88.249344 39.51104 88.249344 88.249344l0 0 0 77.867008 77.867008 0c48.74752 0 88.249344 39.51104 88.249344 88.249344l0 0 0 529.494016C948.054016 908.553216 908.553216 948.054016 859.804672 948.054016L859.804672 948.054016zM698.88 159.003648l-539.876352 0L159.003648 698.88l83.057664 0 0-368.569344c0-48.73728 39.51104-88.249344 88.249344-88.249344l0 0L698.88 242.061312 698.88 159.003648zM864.996352 325.12 325.12 325.12l0 539.876352 539.876352 0L864.996352 325.12z"  /></svg>