<svg class="svg-icon" style="width: 1em; height: 1em;vertical-align: middle;fill: currentColor;overflow: hidden;" viewBox="0 0 1024 1024" version="1.1" xmlns="http://www.w3.org/2000/svg"><path d="M860.096 1024H163.904A164.032 164.032 0 0 1 0 860.096V163.904A164.032 164.032 0 0 1 163.904 0h696.192A164.032 164.032 0 0 1 1024 163.904V860.16A164.032 164.032 0 0 1 860.096 1024zM163.904 69.44c-52.096 0-94.464 42.368-94.464 94.464V860.16c0 52.032 42.368 94.464 94.464 94.464h696.192c52.032 0 94.464-42.368 94.464-94.464V163.904c0-52.032-42.368-94.464-94.464-94.464H163.904z"  /><path d="M612.992 874.176L400.448 548.032l-233.216 287.04-53.888-43.84 293.248-360.896 209.792 321.792 117.376-160.384 126.272 178.176-56.704 40.128-70.528-99.456zM742.016 414.912a134.592 134.592 0 0 1 0-269.056c74.112 0 134.528 60.288 134.528 134.528s-60.416 134.528-134.528 134.528z m0-199.552a65.152 65.152 0 1 0 0 130.304 65.152 65.152 0 0 0 0-130.304z"  /></svg>