<svg class="svg-icon" style="width: 1em; height: 1em;vertical-align: middle;fill: currentColor;overflow: hidden;" viewBox="0 0 1024 1024" version="1.1" xmlns="http://www.w3.org/2000/svg"><path d="M435.923 813.452c-207.641 0-376.961-169.319-376.961-376.961s169.319-376.961 376.961-376.961 376.961 169.319 376.961 376.961-168.743 376.961-376.961 376.961zM435.923 116.163c-176.752 0-320.329 143.578-320.329 320.329s143.578 320.329 320.329 320.329 320.329-143.578 320.329-320.329-143.578-320.329-320.329-320.329z"  /><path d="M945.015 961.605c-7.438 0-14.873-2.86-20.021-8.579l-252.83-255.119c-10.868-10.868-10.868-29.171 0-40.039s29.171-10.868 40.039 0l252.83 255.119c10.868 10.868 10.868 29.171 0 40.039-5.721 5.721-13.155 8.579-20.021 8.579z"  /></svg>