<svg class="svg-icon" style="width: 1em; height: 1em;vertical-align: middle;fill: currentColor;overflow: hidden;" viewBox="0 0 1024 1024" version="1.1" xmlns="http://www.w3.org/2000/svg"><path d="M274.285714 457.142857m18.102857 0l439.222858 0q18.102857 0 18.102857 18.102857l0 36.937143q0 18.102857-18.102857 18.102857l-439.222858 0q-18.102857 0-18.102857-18.102857l0-36.937143q0-18.102857 18.102857-18.102857Z"  /><path d="M274.285714 302.262857m18.102857 0l219.794286 0q18.102857 0 18.102857 18.102857l0 36.937143q0 18.102857-18.102857 18.102857l-219.794286 0q-18.102857 0-18.102857-18.102857l0-36.937143q0-18.102857 18.102857-18.102857Z"  /><path d="M274.285714 612.022857m18.102857 0l439.222858 0q18.102857 0 18.102857 18.102857l0 36.937143q0 18.102857-18.102857 18.102857l-439.222858 0q-18.102857 0-18.102857-18.102857l0-36.937143q0-18.102857 18.102857-18.102857Z"  /><path d="M512 164.571429c241.92 0 438.857143 155.794286 438.857143 347.428571S753.92 859.428571 512 859.428571a530.285714 530.285714 0 0 1-187.977143-33.828571 73.142857 73.142857 0 0 0-25.782857-4.754286 66.56 66.56 0 0 0-18.285714 2.377143c-47.908571 12.251429-92.708571 21.394286-132.937143 27.611429q14.08-19.2 26.331428-39.497143A73.142857 73.142857 0 0 0 164.571429 722.468571 300.251429 300.251429 0 0 1 73.142857 512C73.142857 320.365714 270.08 164.571429 512 164.571429m0-73.142858C229.302857 91.428571 0 279.588571 0 512a374.674286 374.674286 0 0 0 111.177143 261.302857 470.125714 470.125714 0 0 1-103.497143 118.674286 23.405714 23.405714 0 0 0 18.285714 40.228571h20.48a1083.611429 1083.611429 0 0 0 252.342857-38.582857A603.428571 603.428571 0 0 0 512 932.571429c282.697143 0 512-188.342857 512-420.571429S794.697143 91.428571 512 91.428571z"  /></svg>